<mxfile host="65bd71144e">
    <diagram id="h5Ls8xUtnB-ik9aw6W_9" name="Страница 1">
        <mxGraphModel dx="2041" dy="1845" grid="0" gridSize="10" guides="1" tooltips="1" connect="1" arrows="1" fold="1" page="1" pageScale="1" pageWidth="827" pageHeight="1169" math="0" shadow="0">
            <root>
                <mxCell id="0"/>
                <mxCell id="1" parent="0"/>
                <mxCell id="4" value="" style="edgeStyle=none;html=1;fontSize=12;fontColor=#FFFFFF;" parent="1" source="2" target="3" edge="1">
                    <mxGeometry relative="1" as="geometry"/>
                </mxCell>
                <mxCell id="2" value="START" style="ellipse;whiteSpace=wrap;html=1;strokeWidth=3;" parent="1" vertex="1">
                    <mxGeometry x="-693" y="-822" width="200" height="40" as="geometry"/>
                </mxCell>
                <mxCell id="12" value="" style="edgeStyle=none;html=1;fontSize=13;fontColor=#FFFFFF;" parent="1" source="3" target="10" edge="1">
                    <mxGeometry relative="1" as="geometry"/>
                </mxCell>
                <mxCell id="3" value="&lt;div style=&quot;font-family: &amp;#34;consolas&amp;#34; , &amp;#34;courier new&amp;#34; , monospace ; line-height: 27px ; font-size: 13px&quot;&gt;&lt;font style=&quot;font-size: 13px&quot; color=&quot;#ffffff&quot;&gt;arrayinput;&lt;/font&gt;&lt;/div&gt;&lt;div style=&quot;line-height: 27px&quot;&gt;&lt;span style=&quot;color: rgb(212 , 212 , 212) ; font-family: &amp;#34;consolas&amp;#34; , &amp;#34;courier new&amp;#34; , monospace&quot;&gt;&lt;font style=&quot;font-size: 13px&quot;&gt;size&amp;nbsp;&lt;/font&gt;&lt;/span&gt;&lt;font color=&quot;#ffffff&quot; style=&quot;font-size: 13px&quot;&gt;&lt;font face=&quot;consolas, courier new, monospace&quot; style=&quot;font-size: 13px&quot;&gt;=&amp;nbsp;&lt;/font&gt;&lt;/font&gt;&lt;span style=&quot;font-size: 13px ; color: rgb(212 , 212 , 212) ; font-family: &amp;#34;consolas&amp;#34; , &amp;#34;courier new&amp;#34; , monospace&quot;&gt;arrayInput.Length&lt;/span&gt;&lt;span style=&quot;font-size: 13px ; font-family: &amp;#34;consolas&amp;#34; , &amp;#34;courier new&amp;#34; , monospace ; color: rgb(255 , 255 , 255)&quot;&gt;;&lt;/span&gt;&lt;br&gt;&lt;/div&gt;&lt;div style=&quot;line-height: 27px ; font-size: 13px&quot;&gt;&lt;font style=&quot;font-size: 13px&quot;&gt;&lt;span style=&quot;font-family: &amp;#34;consolas&amp;#34; , &amp;#34;courier new&amp;#34; , monospace&quot;&gt;&lt;font color=&quot;#ffffff&quot; style=&quot;font-size: 13px&quot;&gt;quantity&amp;nbsp;&lt;/font&gt;&lt;/span&gt;&lt;span style=&quot;font-family: &amp;#34;consolas&amp;#34; , &amp;#34;courier new&amp;#34; , monospace ; color: rgb(255 , 255 , 255)&quot;&gt;= 0;&lt;/span&gt;&lt;/font&gt;&lt;/div&gt;" style="rounded=0;whiteSpace=wrap;html=1;strokeWidth=3;arcSize=15;" parent="1" vertex="1">
                    <mxGeometry x="-693" y="-742" width="200" height="80" as="geometry"/>
                </mxCell>
                <mxCell id="16" value="" style="edgeStyle=none;html=1;fontSize=13;fontColor=#FFFFFF;entryX=1;entryY=0.5;entryDx=0;entryDy=0;" parent="1" source="8" target="14" edge="1">
                    <mxGeometry relative="1" as="geometry">
                        <mxPoint x="-453" y="-372" as="targetPoint"/>
                        <Array as="points">
                            <mxPoint x="-453" y="-462"/>
                            <mxPoint x="-453" y="-362"/>
                        </Array>
                    </mxGeometry>
                </mxCell>
                <mxCell id="19" value="" style="edgeStyle=none;html=1;fontSize=13;fontColor=#FFFFFF;entryX=0;entryY=0.5;entryDx=0;entryDy=0;exitX=0;exitY=0.5;exitDx=0;exitDy=0;" parent="1" source="14" target="10" edge="1">
                    <mxGeometry relative="1" as="geometry">
                        <mxPoint x="-763" y="-422" as="sourcePoint"/>
                        <mxPoint x="-893" y="-462" as="targetPoint"/>
                        <Array as="points">
                            <mxPoint x="-773" y="-362"/>
                            <mxPoint x="-773" y="-582"/>
                        </Array>
                    </mxGeometry>
                </mxCell>
                <mxCell id="49" value="" style="edgeStyle=none;html=1;exitX=0;exitY=0.5;exitDx=0;exitDy=0;entryX=0;entryY=0.5;entryDx=0;entryDy=0;" edge="1" parent="1" source="8" target="10">
                    <mxGeometry relative="1" as="geometry">
                        <mxPoint x="-695" y="-580" as="targetPoint"/>
                        <Array as="points">
                            <mxPoint x="-772" y="-462"/>
                            <mxPoint x="-772" y="-582"/>
                        </Array>
                    </mxGeometry>
                </mxCell>
                <mxCell id="8" value="&lt;span style=&quot;font-family: &amp;#34;consolas&amp;#34; , &amp;#34;courier new&amp;#34; , monospace&quot;&gt;length(arraylnput[i]) &amp;lt; = 3&lt;/span&gt;" style="rhombus;whiteSpace=wrap;html=1;labelBackgroundColor=none;fontSize=13;fontColor=#FFFFFF;strokeWidth=3;" parent="1" vertex="1">
                    <mxGeometry x="-723" y="-502" width="260" height="80" as="geometry"/>
                </mxCell>
                <mxCell id="13" value="" style="edgeStyle=none;html=1;fontSize=13;fontColor=#FFFFFF;" parent="1" source="10" edge="1">
                    <mxGeometry relative="1" as="geometry">
                        <mxPoint x="-593" y="-502" as="targetPoint"/>
                    </mxGeometry>
                </mxCell>
                <mxCell id="41" value="" style="edgeStyle=none;html=1;fontSize=13;fontColor=#FFFFFF;exitX=1;exitY=0.5;exitDx=0;exitDy=0;entryX=0;entryY=0.5;entryDx=0;entryDy=0;" parent="1" source="10" target="21" edge="1">
                    <mxGeometry relative="1" as="geometry">
                        <mxPoint x="-343" y="-782" as="targetPoint"/>
                        <Array as="points">
                            <mxPoint x="-453" y="-582"/>
                            <mxPoint x="-453" y="-782"/>
                        </Array>
                    </mxGeometry>
                </mxCell>
                <mxCell id="10" value="&lt;font face=&quot;consolas, courier new, monospace&quot;&gt;i = 0, i &amp;lt;&amp;nbsp;&lt;/font&gt;&lt;span style=&quot;color: rgb(212 , 212 , 212) ; font-family: &amp;#34;consolas&amp;#34; , &amp;#34;courier new&amp;#34; , monospace&quot;&gt;size&lt;/span&gt;&lt;span style=&quot;font-family: &amp;#34;consolas&amp;#34; , &amp;#34;courier new&amp;#34; , monospace&quot;&gt;, i = i +1&lt;/span&gt;" style="shape=hexagon;perimeter=hexagonPerimeter2;whiteSpace=wrap;html=1;fixedSize=1;labelBackgroundColor=none;fontSize=13;fontColor=#FFFFFF;strokeWidth=3;" parent="1" vertex="1">
                    <mxGeometry x="-693" y="-622" width="200" height="80" as="geometry"/>
                </mxCell>
                <mxCell id="14" value="&lt;div style=&quot;text-align: left ; font-family: &amp;#34;consolas&amp;#34; , &amp;#34;courier new&amp;#34; , monospace ; line-height: 27px&quot;&gt;&lt;font style=&quot;font-size: 13px&quot;&gt;quantity = quantity + 1&lt;/font&gt;&lt;/div&gt;" style="rounded=0;whiteSpace=wrap;html=1;labelBackgroundColor=none;fontSize=13;fontColor=#FFFFFF;strokeWidth=3;fillColor=none;" parent="1" vertex="1">
                    <mxGeometry x="-693" y="-382" width="200" height="40" as="geometry"/>
                </mxCell>
                <mxCell id="17" value="yes" style="text;html=1;align=center;verticalAlign=middle;resizable=0;points=[];autosize=1;strokeColor=none;fillColor=none;fontSize=13;fontColor=#FFFFFF;" parent="1" vertex="1">
                    <mxGeometry x="-486" y="-493" width="30" height="20" as="geometry"/>
                </mxCell>
                <mxCell id="36" value="" style="edgeStyle=none;html=1;fontSize=13;fontColor=#FFFFFF;" parent="1" source="21" target="32" edge="1">
                    <mxGeometry relative="1" as="geometry"/>
                </mxCell>
                <mxCell id="21" value="&lt;span style=&quot;font-family: &amp;#34;consolas&amp;#34; , &amp;#34;courier new&amp;#34; , monospace&quot;&gt;arrayOutput[&lt;/span&gt;&lt;span style=&quot;font-family: &amp;#34;consolas&amp;#34; , &amp;#34;courier new&amp;#34; , monospace ; background-color: rgb(30 , 30 , 30)&quot;&gt;quantity]&lt;/span&gt;&lt;span style=&quot;font-family: &amp;#34;consolas&amp;#34; , &amp;#34;courier new&amp;#34; , monospace&quot;&gt;;&lt;br&gt;&lt;br&gt;j = 0;&lt;br&gt;&lt;/span&gt;" style="rounded=0;whiteSpace=wrap;html=1;labelBackgroundColor=none;fontSize=13;fontColor=#FFFFFF;strokeWidth=3;" parent="1" vertex="1">
                    <mxGeometry x="-333" y="-822" width="200" height="80" as="geometry"/>
                </mxCell>
                <mxCell id="27" value="" style="edgeStyle=none;html=1;fontSize=13;fontColor=#FFFFFF;entryX=1;entryY=0.5;entryDx=0;entryDy=0;" parent="1" source="29" target="33" edge="1">
                    <mxGeometry relative="1" as="geometry">
                        <mxPoint x="-93" y="-452" as="targetPoint"/>
                        <Array as="points">
                            <mxPoint x="-93" y="-542"/>
                            <mxPoint x="-93" y="-422"/>
                        </Array>
                    </mxGeometry>
                </mxCell>
                <mxCell id="28" value="" style="edgeStyle=none;html=1;fontSize=13;fontColor=#FFFFFF;entryX=0;entryY=0.5;entryDx=0;entryDy=0;exitX=0;exitY=0.5;exitDx=0;exitDy=0;" parent="1" source="33" target="32" edge="1">
                    <mxGeometry relative="1" as="geometry">
                        <mxPoint x="-403" y="-502" as="sourcePoint"/>
                        <mxPoint x="-533" y="-542" as="targetPoint"/>
                        <Array as="points">
                            <mxPoint x="-413" y="-422"/>
                            <mxPoint x="-413" y="-662"/>
                        </Array>
                    </mxGeometry>
                </mxCell>
                <mxCell id="51" value="" style="edgeStyle=none;html=1;entryX=0;entryY=0.5;entryDx=0;entryDy=0;exitX=0;exitY=0.5;exitDx=0;exitDy=0;" edge="1" parent="1" source="29" target="32">
                    <mxGeometry relative="1" as="geometry">
                        <mxPoint x="-412" y="-542" as="targetPoint"/>
                        <Array as="points">
                            <mxPoint x="-412" y="-542"/>
                            <mxPoint x="-412" y="-662"/>
                        </Array>
                    </mxGeometry>
                </mxCell>
                <mxCell id="29" value="&lt;span style=&quot;font-family: &amp;#34;consolas&amp;#34; , &amp;#34;courier new&amp;#34; , monospace&quot;&gt;length(arraylnput[i]) &amp;lt; = 3&lt;/span&gt;" style="rhombus;whiteSpace=wrap;html=1;labelBackgroundColor=none;fontSize=13;fontColor=#FFFFFF;strokeWidth=3;" parent="1" vertex="1">
                    <mxGeometry x="-363" y="-582" width="260" height="80" as="geometry"/>
                </mxCell>
                <mxCell id="30" value="" style="edgeStyle=none;html=1;fontSize=13;fontColor=#FFFFFF;" parent="1" source="32" edge="1">
                    <mxGeometry relative="1" as="geometry">
                        <mxPoint x="-233" y="-582" as="targetPoint"/>
                    </mxGeometry>
                </mxCell>
                <mxCell id="31" value="" style="edgeStyle=none;html=1;fontSize=13;fontColor=#FFFFFF;entryX=1;entryY=0.25;entryDx=0;entryDy=0;exitX=1;exitY=0.5;exitDx=0;exitDy=0;" parent="1" source="32" target="39" edge="1">
                    <mxGeometry relative="1" as="geometry">
                        <mxPoint x="-133" y="-342" as="targetPoint"/>
                        <Array as="points">
                            <mxPoint x="-53" y="-662"/>
                            <mxPoint x="-53" y="-329"/>
                        </Array>
                    </mxGeometry>
                </mxCell>
                <mxCell id="32" value="&lt;font face=&quot;consolas, courier new, monospace&quot;&gt;i = 0, i &amp;lt;&amp;nbsp;&lt;/font&gt;&lt;span style=&quot;color: rgb(212 , 212 , 212) ; font-family: &amp;#34;consolas&amp;#34; , &amp;#34;courier new&amp;#34; , monospace&quot;&gt;size&lt;/span&gt;&lt;span style=&quot;font-family: &amp;#34;consolas&amp;#34; , &amp;#34;courier new&amp;#34; , monospace&quot;&gt;, i = i +1&lt;/span&gt;" style="shape=hexagon;perimeter=hexagonPerimeter2;whiteSpace=wrap;html=1;fixedSize=1;labelBackgroundColor=none;fontSize=13;fontColor=#FFFFFF;strokeWidth=3;" parent="1" vertex="1">
                    <mxGeometry x="-333" y="-702" width="200" height="80" as="geometry"/>
                </mxCell>
                <mxCell id="33" value="&lt;div style=&quot;background-color: rgb(30 , 30 , 30) ; font-family: &amp;#34;consolas&amp;#34; , &amp;#34;courier new&amp;#34; , monospace ; line-height: 27px&quot;&gt;&lt;span style=&quot;background-color: rgb(42 , 42 , 42)&quot;&gt;arrayOutput[j] =&amp;nbsp;&lt;/span&gt;&lt;br&gt;&lt;/div&gt;&lt;span style=&quot;font-family: &amp;#34;consolas&amp;#34; , &amp;#34;courier new&amp;#34; , monospace&quot;&gt;arraylnput[i];&lt;br&gt;j = j + 1;&lt;br&gt;&lt;/span&gt;" style="rounded=0;whiteSpace=wrap;html=1;labelBackgroundColor=none;fontSize=13;fontColor=#FFFFFF;strokeWidth=3;" parent="1" vertex="1">
                    <mxGeometry x="-333" y="-462" width="200" height="80" as="geometry"/>
                </mxCell>
                <mxCell id="34" value="yes" style="text;html=1;align=center;verticalAlign=middle;resizable=0;points=[];autosize=1;strokeColor=none;fillColor=none;fontSize=13;fontColor=#FFFFFF;" parent="1" vertex="1">
                    <mxGeometry x="-108" y="-572" width="30" height="20" as="geometry"/>
                </mxCell>
                <mxCell id="44" value="" style="edgeStyle=none;html=1;fontSize=13;fontColor=#FFFFFF;" parent="1" source="39" edge="1">
                    <mxGeometry relative="1" as="geometry">
                        <mxPoint x="-233" y="-262.0000000000002" as="targetPoint"/>
                    </mxGeometry>
                </mxCell>
                <mxCell id="39" value="&lt;span style=&quot;font-family: &amp;#34;consolas&amp;#34; , &amp;#34;courier new&amp;#34; , monospace&quot;&gt;arraylnput;&amp;nbsp;&lt;/span&gt;&lt;span style=&quot;font-family: &amp;#34;consolas&amp;#34; , &amp;#34;courier new&amp;#34; , monospace&quot;&gt;arrayOutput;&lt;/span&gt;" style="shape=document;whiteSpace=wrap;html=1;boundedLbl=1;labelBackgroundColor=none;fontSize=13;fontColor=#FFFFFF;strokeWidth=3;" parent="1" vertex="1">
                    <mxGeometry x="-333" y="-342" width="200" height="50" as="geometry"/>
                </mxCell>
                <mxCell id="43" value="END" style="ellipse;whiteSpace=wrap;html=1;strokeWidth=3;" parent="1" vertex="1">
                    <mxGeometry x="-336" y="-260" width="200" height="40" as="geometry"/>
                </mxCell>
                <mxCell id="45" value="&lt;div&gt;ЗАДАЧА:&lt;/div&gt;&lt;div&gt;&amp;nbsp;&lt;/div&gt;&lt;div&gt;Написать программу, которая из имеющегося массива строк&amp;nbsp;&lt;/div&gt;&lt;div&gt;формирует массив из строк, длина которых меньше либо равна 3 символа.&amp;nbsp;&lt;/div&gt;&lt;div&gt;Первоначальный массив можно ввести с клавиатуры, либо задать на старте выполнения алгоритма.&amp;nbsp;&lt;/div&gt;&lt;div&gt;При решении не рекомендуется пользоваться коллекциями, лучше обойтись исключительно массивами.&lt;/div&gt;&lt;div&gt;&lt;br&gt;&lt;/div&gt;&lt;div&gt;ПРИМЕРЫ:&lt;/div&gt;&lt;div&gt;&lt;span&gt;&lt;br&gt;&lt;/span&gt;&lt;/div&gt;&lt;div&gt;&lt;span&gt;[&quot;hello”, &quot;2&quot;, &quot;world”,-&amp;gt; [&quot;2”,&lt;/span&gt;&lt;/div&gt;&lt;div&gt;[&quot;1234”, ”1567&quot;, ”-2”, &quot;computer science&quot;] -&amp;gt; [&quot;-2&quot;]&lt;/div&gt;&lt;div&gt;[&quot;Russia”, &quot;Denmark&quot;, &quot;Kazan&quot;] -&amp;gt; []&lt;/div&gt;" style="text;html=1;align=left;verticalAlign=middle;resizable=0;points=[];autosize=1;strokeColor=none;fillColor=none;" parent="1" vertex="1">
                    <mxGeometry x="-785" y="-1103" width="585" height="172" as="geometry"/>
                </mxCell>
                <mxCell id="46" value="Разработчик - гр. 2123&amp;nbsp;&lt;br&gt;Фролова Вера&amp;nbsp;" style="text;html=1;align=left;verticalAlign=middle;resizable=0;points=[];autosize=1;strokeColor=none;fillColor=none;" parent="1" vertex="1">
                    <mxGeometry x="-181" y="-1103" width="136" height="32" as="geometry"/>
                </mxCell>
                <mxCell id="47" value="&lt;div style=&quot;font-family: &amp;#34;consolas&amp;#34; , &amp;#34;courier new&amp;#34; , monospace ; line-height: 27px&quot;&gt;&lt;div&gt;ДЕКОМПОЗИЦИЯ ЗАДАЧИ:&lt;/div&gt;&lt;div&gt;&lt;span&gt;- создать массив строк&amp;nbsp;&lt;/span&gt;&lt;span&gt;arrayinput&lt;/span&gt;&lt;span&gt;,&lt;/span&gt;&lt;br&gt;&lt;/div&gt;&lt;div&gt;- подсчитать quantity - число элементов у которых длина меньше либо равна 3,&lt;/div&gt;&lt;div&gt;- задать массив&amp;nbsp;&lt;span style=&quot;font-size: 13px ; text-align: center&quot;&gt;arrayOutput&lt;/span&gt;&lt;span&gt;, количество элементов которого равно quantity,&lt;/span&gt;&lt;/div&gt;&lt;div&gt;- заполнить массив&amp;nbsp;&lt;span style=&quot;font-size: 13px ; text-align: center&quot;&gt;arrayOutput&amp;nbsp;&lt;/span&gt;&lt;span&gt;строками из первого массива, длина&amp;nbsp;&lt;/span&gt;&lt;span&gt;которых меньше либо равна 3.&lt;/span&gt;&lt;/div&gt;&lt;/div&gt;" style="text;html=1;align=left;verticalAlign=middle;resizable=0;points=[];autosize=1;strokeColor=none;fillColor=none;fontSize=13;fontColor=#FFFFFF;" parent="1" vertex="1">
                    <mxGeometry x="-765" y="-205" width="687" height="139" as="geometry"/>
                </mxCell>
                <mxCell id="52" value="&lt;font style=&quot;font-size: 13px&quot;&gt;no&lt;/font&gt;" style="text;html=1;align=center;verticalAlign=middle;resizable=0;points=[];autosize=1;strokeColor=none;fillColor=none;" vertex="1" parent="1">
                    <mxGeometry x="-723" y="-492" width="24" height="18" as="geometry"/>
                </mxCell>
                <mxCell id="53" value="&lt;font style=&quot;font-size: 13px&quot;&gt;no&lt;/font&gt;" style="text;html=1;align=center;verticalAlign=middle;resizable=0;points=[];autosize=1;strokeColor=none;fillColor=none;" vertex="1" parent="1">
                    <mxGeometry x="-378" y="-570" width="24" height="18" as="geometry"/>
                </mxCell>
                <mxCell id="57" value="yes" style="text;html=1;align=center;verticalAlign=middle;resizable=0;points=[];autosize=1;strokeColor=none;fillColor=none;fontSize=13;fontColor=#FFFFFF;" vertex="1" parent="1">
                    <mxGeometry x="-583" y="-535" width="30" height="20" as="geometry"/>
                </mxCell>
                <mxCell id="59" value="yes" style="text;html=1;align=center;verticalAlign=middle;resizable=0;points=[];autosize=1;strokeColor=none;fillColor=none;fontSize=13;fontColor=#FFFFFF;" vertex="1" parent="1">
                    <mxGeometry x="-220" y="-612" width="30" height="20" as="geometry"/>
                </mxCell>
                <mxCell id="60" value="&lt;font style=&quot;font-size: 13px&quot;&gt;no&lt;/font&gt;" style="text;html=1;align=center;verticalAlign=middle;resizable=0;points=[];autosize=1;strokeColor=none;fillColor=none;" vertex="1" parent="1">
                    <mxGeometry x="-487" y="-606" width="24" height="18" as="geometry"/>
                </mxCell>
                <mxCell id="61" value="&lt;font style=&quot;font-size: 13px&quot;&gt;no&lt;/font&gt;" style="text;html=1;align=center;verticalAlign=middle;resizable=0;points=[];autosize=1;strokeColor=none;fillColor=none;" vertex="1" parent="1">
                    <mxGeometry x="-127" y="-655" width="24" height="18" as="geometry"/>
                </mxCell>
            </root>
        </mxGraphModel>
    </diagram>
</mxfile>